# xmcd
#
# Track frame offsets:
#	150
#	15652
#	25762
#	47087
#	56837
#	74712
#
# Disc length: 1180 seconds
#
# Revision: 1
# Processed by: cddbd v1.5.1PL0 Copyright (c) Steve Scherf et al.
# Submitted via: CDex 1.50Beta5
#
DISCID=50049a06
DTITLE=Various Artist - ピアノの絵本ホワイトクリスマス
DYEAR=1900
DGENRE=
TTITLE0=きよしこの夜
TTITLE1=ジングル・ベル
TTITLE2=グリーンスリーブス
TTITLE3=アヴェ・マリア
TTITLE4=主よ人の望みの喜びよ
TTITLE5=ホワイト・クリスマス
EXTD=
EXTT0=
EXTT1=
EXTT2=
EXTT3=
EXTT4=
EXTT5=
PLAYORDER=
